<svg version="1.1" viewBox="0.0 0.0 880.0 410.0" fill="none" stroke="none" stroke-linecap="square" stroke-miterlimit="10" width="880" height="410" xmlns:xlink="http://www.w3.org/1999/xlink" xmlns="http://www.w3.org/2000/svg"><path fill="#ffffff" d="M0 0L880.0 0L880.0 410.0L0 410.0L0 0Z" fill-rule="nonzero"/><path stroke="#333333" stroke-width="1.0" stroke-linecap="butt" d="M127.5 350.5L859.5 350.5" fill-rule="nonzero"/><path stroke="#cccccc" stroke-width="1.0" stroke-linecap="butt" d="M127.5 269.5L859.5 269.5" fill-rule="nonzero"/><path stroke="#cccccc" stroke-width="1.0" stroke-linecap="butt" d="M127.5 189.5L859.5 189.5" fill-rule="nonzero"/><path stroke="#cccccc" stroke-width="1.0" stroke-linecap="butt" d="M127.5 108.5L859.5 108.5" fill-rule="nonzero"/><path stroke="#cccccc" stroke-width="1.0" stroke-linecap="butt" d="M127.5 27.5L859.5 27.5" fill-rule="nonzero"/><clipPath id="id_0"><path d="M127.5 27.5L859.5 27.5L859.5 350.5L127.5 350.5L127.5 27.5Z" clip-rule="nonzero"/></clipPath><path fill="#4285f4" clip-path="url(#id_0)" d="M140.92683 333.60364C140.92683 336.08893 138.91211 338.10364 136.42683 338.10364C133.94154 338.10364 131.92683 336.08893 131.92683 333.60364C131.92683 331.11835 133.94154 329.10364 136.42683 329.10364C138.91211 329.10364 140.92683 331.11835 140.92683 333.60364Z" fill-rule="nonzero"/><path fill="#4285f4" clip-path="url(#id_0)" d="M158.78049 348.60416C158.78049 351.08945 156.76576 353.10416 154.28049 353.10416C151.79521 353.10416 149.78049 351.08945 149.78049 348.60416C149.78049 346.11887 151.79521 344.10416 154.28049 344.10416C156.76576 344.10416 158.78049 346.11887 158.78049 348.60416Z" fill-rule="nonzero"/><path fill="#4285f4" clip-path="url(#id_0)" d="M176.63414 349.92426C176.63414 352.40955 174.61943 354.42426 172.13414 354.42426C169.64886 354.42426 167.63414 352.40955 167.63414 349.92426C167.63414 347.43896 169.64886 345.42426 172.13414 345.42426C174.61943 345.42426 176.63414 347.43896 176.63414 349.92426Z" fill-rule="nonzero"/><path fill="#4285f4" clip-path="url(#id_0)" d="M194.48781 347.65115C194.48781 350.13644 192.47308 352.15115 189.98781 352.15115C187.50252 352.15115 185.48781 350.13644 185.48781 347.65115C185.48781 345.16586 187.50252 343.15115 189.98781 343.15115C192.47308 343.15115 194.48781 345.16586 194.48781 347.65115Z" fill-rule="nonzero"/><path fill="#4285f4" clip-path="url(#id_0)" d="M212.34146 318.4916C212.34146 320.9769 210.32675 322.9916 207.84146 322.9916C205.35619 322.9916 203.34146 320.9769 203.34146 318.4916C203.34146 316.00632 205.35619 313.9916 207.84146 313.9916C210.32675 313.9916 212.34146 316.00632 212.34146 318.4916Z" fill-rule="nonzero"/><path fill="#4285f4" clip-path="url(#id_0)" d="M230.19513 317.87546C230.19513 320.36075 228.1804 322.37546 225.69513 322.37546C223.20984 322.37546 221.19513 320.36075 221.19513 317.87546C221.19513 315.3902 223.20984 313.37546 225.69513 313.37546C228.1804 313.37546 230.19513 315.3902 230.19513 317.87546Z" fill-rule="nonzero"/><path fill="#4285f4" clip-path="url(#id_0)" d="M248.04878 343.0541C248.04878 345.5394 246.03406 347.5541 243.54878 347.5541C241.06349 347.5541 239.04878 345.5394 239.04878 343.0541C239.04878 340.56882 241.06349 338.5541 243.54878 338.5541C246.03406 338.5541 248.04878 340.56882 248.04878 343.0541Z" fill-rule="nonzero"/><path fill="#4285f4" clip-path="url(#id_0)" d="M265.90244 328.60147C265.90244 331.08676 263.88773 333.10147 261.40244 333.10147C258.91714 333.10147 256.90244 331.08676 256.90244 328.60147C256.90244 326.1162 258.91714 324.10147 261.40244 324.10147C263.88773 324.10147 265.90244 326.1162 265.90244 328.60147Z" fill-rule="nonzero"/><path fill="#4285f4" clip-path="url(#id_0)" d="M283.7561 291.7947C283.7561 294.27997 281.7414 296.2947 279.2561 296.2947C276.7708 296.2947 274.7561 294.27997 274.7561 291.7947C274.7561 289.30942 276.7708 287.2947 279.2561 287.2947C281.7414 287.2947 283.7561 289.30942 283.7561 291.7947Z" fill-rule="nonzero"/><path fill="#4285f4" clip-path="url(#id_0)" d="M301.60974 315.4474C301.60974 317.93265 299.59503 319.9474 297.10974 319.9474C294.62448 319.9474 292.60974 317.93265 292.60974 315.4474C292.60974 312.9621 294.62448 310.9474 297.10974 310.9474C299.59503 310.9474 301.60974 312.9621 301.60974 315.4474Z" fill-rule="nonzero"/><path fill="#4285f4" clip-path="url(#id_0)" d="M319.4634 324.21954C319.4634 326.7048 317.4487 328.71954 314.9634 328.71954C312.47812 328.71954 310.4634 326.7048 310.4634 324.21954C310.4634 321.73425 312.47812 319.71954 314.9634 319.71954C317.4487 319.71954 319.4634 321.73425 319.4634 324.21954Z" fill-rule="nonzero"/><path fill="#4285f4" clip-path="url(#id_0)" d="M337.31708 284.24133C337.31708 286.72662 335.30237 288.74133 332.81708 288.74133C330.3318 288.74133 328.31708 286.72662 328.31708 284.24133C328.31708 281.75607 330.3318 279.74133 332.81708 279.74133C335.30237 279.74133 337.31708 281.75607 337.31708 284.24133Z" fill-rule="nonzero"/><path fill="#4285f4" clip-path="url(#id_0)" d="M355.17075 339.47763C355.17075 341.96292 353.156 343.97763 350.67075 343.97763C348.18546 343.97763 346.17075 341.96292 346.17075 339.47763C346.17075 336.99237 348.18546 334.97763 350.67075 334.97763C353.156 334.97763 355.17075 336.99237 355.17075 339.47763Z" fill-rule="nonzero"/><path fill="#4285f4" clip-path="url(#id_0)" d="M373.02438 340.35123C373.02438 342.83652 371.00967 344.85123 368.52438 344.85123C366.03912 344.85123 364.02438 342.83652 364.02438 340.35123C364.02438 337.86594 366.03912 335.85123 368.52438 335.85123C371.00967 335.85123 373.02438 337.86594 373.02438 340.35123Z" fill-rule="nonzero"/><path fill="#4285f4" clip-path="url(#id_0)" d="M390.87805 318.73044C390.87805 321.21573 388.86334 323.23044 386.37805 323.23044C383.89276 323.23044 381.87805 321.21573 381.87805 318.73044C381.87805 316.24515 383.89276 314.23044 386.37805 314.23044C388.86334 314.23044 390.87805 316.24515 390.87805 318.73044Z" fill-rule="nonzero"/><path fill="#4285f4" clip-path="url(#id_0)" d="M408.73172 271.83932C408.73172 274.32462 406.71698 276.33932 404.23172 276.33932C401.74643 276.33932 399.73172 274.32462 399.73172 271.83932C399.73172 269.35403 401.74643 267.33932 404.23172 267.33932C406.71698 267.33932 408.73172 269.35403 408.73172 271.83932Z" fill-rule="nonzero"/><path fill="#4285f4" clip-path="url(#id_0)" d="M426.58536 326.5958C426.58536 329.08105 424.57065 331.0958 422.08536 331.0958C419.6001 331.0958 417.58536 329.08105 417.58536 326.5958C417.58536 324.1105 419.6001 322.0958 422.08536 322.0958C424.57065 322.0958 426.58536 324.1105 426.58536 326.5958Z" fill-rule="nonzero"/><path fill="#4285f4" clip-path="url(#id_0)" d="M444.43903 258.05817C444.43903 260.54343 442.42432 262.55817 439.93903 262.55817C437.45374 262.55817 435.43903 260.54343 435.43903 258.05817C435.43903 255.57288 437.45374 253.55817 439.93903 253.55817C442.42432 253.55817 444.43903 255.57288 444.43903 258.05817Z" fill-rule="nonzero"/><path fill="#4285f4" clip-path="url(#id_0)" d="M462.2927 277.57797C462.2927 280.06323 460.27795 282.07797 457.7927 282.07797C455.3074 282.07797 453.2927 280.06323 453.2927 277.57797C453.2927 275.09268 455.3074 273.07797 457.7927 273.07797C460.27795 273.07797 462.2927 275.09268 462.2927 277.57797Z" fill-rule="nonzero"/><path fill="#4285f4" clip-path="url(#id_0)" d="M480.14633 341.1536C480.14633 343.6389 478.13162 345.6536 475.64633 345.6536C473.16107 345.6536 471.14633 343.6389 471.14633 341.1536C471.14633 338.66833 473.16107 336.6536 475.64633 336.6536C478.13162 336.6536 480.14633 338.66833 480.14633 341.1536Z" fill-rule="nonzero"/><path fill="#4285f4" clip-path="url(#id_0)" d="M498.0 347.8388C498.0 350.3241 495.9853 352.3388 493.5 352.3388C491.0147 352.3388 489.0 350.3241 489.0 347.8388C489.0 345.35352 491.0147 343.3388 493.5 343.3388C495.9853 343.3388 498.0 345.35352 498.0 347.8388Z" fill-rule="nonzero"/><path fill="#4285f4" clip-path="url(#id_0)" d="M515.85364 201.62164C515.85364 204.10692 513.8389 206.12164 511.35367 206.12164C508.86838 206.12164 506.85367 204.10692 506.85367 201.62164C506.85367 199.13635 508.86838 197.12164 511.35367 197.12164C513.8389 197.12164 515.85364 199.13635 515.85364 201.62164Z" fill-rule="nonzero"/><path fill="#4285f4" clip-path="url(#id_0)" d="M533.70734 346.92374C533.70734 349.409 531.6926 351.42374 529.20734 351.42374C526.72205 351.42374 524.70734 349.409 524.70734 346.92374C524.70734 344.43845 526.72205 342.42374 529.20734 342.42374C531.6926 342.42374 533.70734 344.43845 533.70734 346.92374Z" fill-rule="nonzero"/><path fill="#4285f4" clip-path="url(#id_0)" d="M551.561 328.45325C551.561 330.93854 549.54626 332.95325 547.061 332.95325C544.5757 332.95325 542.561 330.93854 542.561 328.45325C542.561 325.968 544.5757 323.95325 547.061 323.95325C549.54626 323.95325 551.561 325.968 551.561 328.45325Z" fill-rule="nonzero"/><path fill="#4285f4" clip-path="url(#id_0)" d="M569.4146 348.65094C569.4146 351.1362 567.3999 353.15094 564.9146 353.15094C562.4294 353.15094 560.4146 351.1362 560.4146 348.65094C560.4146 346.16565 562.4294 344.15094 564.9146 344.15094C567.3999 344.15094 569.4146 346.16565 569.4146 348.65094Z" fill-rule="nonzero"/><path fill="#4285f4" clip-path="url(#id_0)" d="M587.2683 350.15512C587.2683 352.6404 585.2536 354.65512 582.7683 354.65512C580.283 354.65512 578.2683 352.6404 578.2683 350.15512C578.2683 347.66983 580.283 345.65512 582.7683 345.65512C585.2536 345.65512 587.2683 347.66983 587.2683 350.15512Z" fill-rule="nonzero"/><path fill="#4285f4" clip-path="url(#id_0)" d="M605.12195 260.47345C605.12195 262.95874 603.10724 264.97345 600.62195 264.97345C598.13666 264.97345 596.12195 262.95874 596.12195 260.47345C596.12195 257.98816 598.13666 255.97345 600.62195 255.97345C603.10724 255.97345 605.12195 257.98816 605.12195 260.47345Z" fill-rule="nonzero"/><path fill="#4285f4" clip-path="url(#id_0)" d="M622.9756 286.87943C622.9756 289.36472 620.9609 291.37943 618.4756 291.37943C615.99036 291.37943 613.9756 289.36472 613.9756 286.87943C613.9756 284.39413 615.99036 282.37943 618.4756 282.37943C620.9609 282.37943 622.9756 284.39413 622.9756 286.87943Z" fill-rule="nonzero"/><path fill="#4285f4" clip-path="url(#id_0)" d="M640.8293 334.4107C640.8293 336.89597 638.8146 338.9107 636.3293 338.9107C633.844 338.9107 631.8293 336.89597 631.8293 334.4107C631.8293 331.9254 633.844 329.9107 636.3293 329.9107C638.8146 329.9107 640.8293 331.9254 640.8293 334.4107Z" fill-rule="nonzero"/><path fill="#4285f4" clip-path="url(#id_0)" d="M658.6829 337.73477C658.6829 340.22006 656.6682 342.23477 654.1829 342.23477C651.69763 342.23477 649.6829 340.22006 649.6829 337.73477C649.6829 335.24948 651.69763 333.23477 654.1829 333.23477C656.6682 333.23477 658.6829 335.24948 658.6829 337.73477Z" fill-rule="nonzero"/><path fill="#4285f4" clip-path="url(#id_0)" d="M676.53656 243.67165C676.53656 246.15692 674.52185 248.17165 672.03656 248.17165C669.55133 248.17165 667.53656 246.15692 667.53656 243.67165C667.53656 241.18636 669.55133 239.17165 672.03656 239.17165C674.52185 239.17165 676.53656 241.18636 676.53656 243.67165Z" fill-rule="nonzero"/><path fill="#4285f4" clip-path="url(#id_0)" d="M694.39026 197.03172C694.39026 199.517 692.37555 201.53172 689.89026 201.53172C687.40497 201.53172 685.39026 199.517 685.39026 197.03172C685.39026 194.54645 687.40497 192.53172 689.89026 192.53172C692.37555 192.53172 694.39026 194.54645 694.39026 197.03172Z" fill-rule="nonzero"/><path fill="#4285f4" clip-path="url(#id_0)" d="M712.2439 92.01449C712.2439 94.49977 710.2292 96.51449 707.7439 96.51449C705.2586 96.51449 703.2439 94.49977 703.2439 92.01449C703.2439 89.529205 705.2586 87.51449 707.7439 87.51449C710.2292 87.51449 712.2439 89.529205 712.2439 92.01449Z" fill-rule="nonzero"/><path fill="#4285f4" clip-path="url(#id_0)" d="M730.09753 348.88806C730.09753 351.37335 728.0828 353.38806 725.59753 353.38806C723.1123 353.38806 721.09753 351.37335 721.09753 348.88806C721.09753 346.40277 723.1123 344.38806 725.59753 344.38806C728.0828 344.38806 730.09753 346.40277 730.09753 348.88806Z" fill-rule="nonzero"/><path fill="#4285f4" clip-path="url(#id_0)" d="M747.95123 349.54352C747.95123 352.0288 745.9365 354.04352 743.45123 354.04352C740.96594 354.04352 738.95123 352.0288 738.95123 349.54352C738.95123 347.05823 740.96594 345.04352 743.45123 345.04352C745.9365 345.04352 747.95123 347.05823 747.95123 349.54352Z" fill-rule="nonzero"/><path fill="#4285f4" clip-path="url(#id_0)" d="M765.8049 344.61285C765.8049 347.09814 763.79016 349.11285 761.3049 349.11285C758.8196 349.11285 756.8049 347.09814 756.8049 344.61285C756.8049 342.12756 758.8196 340.11285 761.3049 340.11285C763.79016 340.11285 765.8049 342.12756 765.8049 344.61285Z" fill-rule="nonzero"/><path fill="#4285f4" clip-path="url(#id_0)" d="M783.6585 258.1055C783.6585 260.59076 781.6438 262.6055 779.1585 262.6055C776.6733 262.6055 774.6585 260.59076 774.6585 258.1055C774.6585 255.62021 776.6733 253.60548 779.1585 253.60548C781.6438 253.60548 783.6585 255.62021 783.6585 258.1055Z" fill-rule="nonzero"/><path fill="#4285f4" clip-path="url(#id_0)" d="M801.5122 347.1697C801.5122 349.65497 799.4975 351.6697 797.0122 351.6697C794.5269 351.6697 792.5122 349.65497 792.5122 347.1697C792.5122 344.68442 794.5269 342.6697 797.0122 342.6697C799.4975 342.6697 801.5122 344.68442 801.5122 347.1697Z" fill-rule="nonzero"/><path fill="#4285f4" clip-path="url(#id_0)" d="M819.36584 172.85C819.36584 175.33528 817.35114 177.35 814.86584 177.35C812.38055 177.35 810.36584 175.33528 810.36584 172.85C810.36584 170.36472 812.38055 168.35 814.86584 168.35C817.35114 168.35 819.36584 170.36472 819.36584 172.85Z" fill-rule="nonzero"/><path fill="#4285f4" clip-path="url(#id_0)" d="M837.2195 273.56137C837.2195 276.04666 835.2048 278.06137 832.7195 278.06137C830.23425 278.06137 828.2195 276.04666 828.2195 273.56137C828.2195 271.0761 830.23425 269.06137 832.7195 269.06137C835.2048 269.06137 837.2195 271.0761 837.2195 273.56137Z" fill-rule="nonzero"/><path fill="#4285f4" clip-path="url(#id_0)" d="M855.0732 349.73184C855.0732 352.21713 853.0585 354.23184 850.5732 354.23184C848.0879 354.23184 846.0732 352.21713 846.0732 349.73184C846.0732 347.24655 848.0879 345.23184 850.5732 345.23184C853.0585 345.23184 855.0732 347.24655 855.0732 349.73184Z" fill-rule="nonzero"/><path fill="#000000" d="M474.54688 383.73438L475.60938 383.64062Q475.6875 384.29688 475.96875 384.70312Q476.25 385.10938 476.82812 385.375Q477.42188 385.625 478.15625 385.625Q478.79688 385.625 479.29688 385.4375Q479.79688 385.23438 480.03125 384.90625Q480.28125 384.5625 480.28125 384.17188Q480.28125 383.76562 480.04688 383.46875Q479.8125 383.15625 479.28125 382.95312Q478.92188 382.8125 477.73438 382.53125Q476.5625 382.25 476.09375 382.0Q475.46875 381.67188 475.17188 381.20312Q474.875 380.71875 474.875 380.125Q474.875 379.48438 475.23438 378.92188Q475.60938 378.34375 476.3125 378.0625Q477.03125 377.76562 477.89062 377.76562Q478.84375 377.76562 479.57812 378.07812Q480.3125 378.375 480.70312 378.98438Q481.09375 379.57812 481.125 380.32812L480.03125 380.40625Q479.9375 379.59375 479.42188 379.1875Q478.92188 378.76562 477.9375 378.76562Q476.90625 378.76562 476.4375 379.14062Q475.96875 379.51562 475.96875 380.04688Q475.96875 380.51562 476.29688 380.8125Q476.625 381.10938 478.0 381.42188Q479.39062 381.73438 479.90625 381.96875Q480.65625 382.32812 481.01562 382.85938Q481.375 383.375 481.375 384.07812Q481.375 384.76562 480.98438 385.375Q480.59375 385.96875 479.85938 386.3125Q479.125 386.64062 478.20312 386.64062Q477.03125 386.64062 476.23438 386.3125Q475.45312 385.96875 475.0 385.28125Q474.5625 384.59375 474.54688 383.73438ZM482.40625 383.39062Q482.40625 381.65625 483.35938 380.82812Q484.15625 380.14062 485.3125 380.14062Q486.59375 380.14062 487.40625 380.98438Q488.23438 381.8125 488.23438 383.29688Q488.23438 384.5 487.875 385.1875Q487.51562 385.875 486.8125 386.26562Q486.125 386.64062 485.3125 386.64062Q484.01562 386.64062 483.20312 385.8125Q482.40625 384.96875 482.40625 383.39062ZM483.48438 383.39062Q483.48438 384.57812 484.0 385.17188Q484.53125 385.76562 485.3125 385.76562Q486.10938 385.76562 486.625 385.17188Q487.14062 384.57812 487.14062 383.35938Q487.14062 382.20312 486.60938 381.60938Q486.09375 381.01562 485.3125 381.01562Q484.53125 381.01562 484.0 381.60938Q483.48438 382.1875 483.48438 383.39062ZM493.875 386.5L493.875 385.57812Q493.14062 386.64062 491.89062 386.64062Q491.34375 386.64062 490.85938 386.4375Q490.39062 386.21875 490.15625 385.90625Q489.92188 385.57812 489.82812 385.10938Q489.76562 384.8125 489.76562 384.125L489.76562 380.28125L490.82812 380.28125L490.82812 383.73438Q490.82812 384.54688 490.89062 384.84375Q490.98438 385.25 491.29688 385.5Q491.625 385.73438 492.10938 385.73438Q492.57812 385.73438 492.98438 385.5Q493.40625 385.25 493.57812 384.82812Q493.76562 384.40625 493.76562 383.60938L493.76562 380.28125L494.8125 380.28125L494.8125 386.5L493.875 386.5ZM496.78125 386.5L496.78125 380.28125L497.73438 380.28125L497.73438 381.21875Q498.09375 380.5625 498.39062 380.35938Q498.70312 380.14062 499.07812 380.14062Q499.60938 380.14062 500.15625 380.46875L499.79688 381.45312Q499.40625 381.21875 499.03125 381.21875Q498.67188 381.21875 498.39062 381.4375Q498.125 381.64062 498.01562 382.01562Q497.82812 382.57812 497.82812 383.23438L497.82812 386.5L496.78125 386.5ZM504.85938 384.21875L505.89062 384.35938Q505.71875 385.42188 505.01562 386.03125Q504.3125 386.64062 503.29688 386.64062Q502.01562 386.64062 501.23438 385.8125Q500.46875 384.96875 500.46875 383.40625Q500.46875 382.40625 500.79688 381.65625Q501.14062 380.89062 501.8125 380.51562Q502.5 380.14062 503.3125 380.14062Q504.3125 380.14062 504.95312 380.65625Q505.60938 381.15625 505.79688 382.10938L504.76562 382.26562Q504.625 381.64062 504.25 381.32812Q503.875 381.0 503.34375 381.0Q502.54688 381.0 502.04688 381.57812Q501.54688 382.14062 501.54688 383.375Q501.54688 384.64062 502.03125 385.20312Q502.51562 385.76562 503.28125 385.76562Q503.90625 385.76562 504.3125 385.39062Q504.73438 385.01562 504.85938 384.21875ZM511.04688 384.5L512.1406 384.625Q511.89062 385.57812 511.1875 386.10938Q510.48438 386.64062 509.40625 386.64062Q508.04688 386.64062 507.23438 385.79688Q506.4375 384.95312 506.4375 383.4375Q506.4375 381.875 507.25 381.01562Q508.0625 380.14062 509.34375 380.14062Q510.59375 380.14062 511.375 380.98438Q512.1719 381.82812 512.1719 383.375Q512.1719 383.46875 512.1719 383.65625L507.53125 383.65625Q507.59375 384.6875 508.10938 385.23438Q508.625 385.76562 509.40625 385.76562Q509.98438 385.76562 510.39062 385.46875Q510.8125 385.15625 511.04688 384.5ZM507.59375 382.79688L511.0625 382.79688Q511.0 382.0 510.67188 381.60938Q510.15625 381.0 509.35938 381.0Q508.625 381.0 508.125 381.48438Q507.64062 381.96875 507.59375 382.79688Z" fill-rule="nonzero"/><path fill="#000000" d="M31.5 234.57812L22.90625 234.57812L22.90625 233.42188L29.65625 228.90625L22.90625 228.90625L22.90625 227.8125L31.5 227.8125L31.5 228.98438L24.75 233.5L31.5 233.5L31.5 234.57812ZM31.5 221.625L30.578125 221.625Q31.640625 222.35938 31.640625 223.60938Q31.640625 224.15625 31.4375 224.64062Q31.21875 225.10938 30.90625 225.34375Q30.578125 225.57812 30.109375 225.67188Q29.8125 225.73438 29.125 225.73438L25.28125 225.73438L25.28125 224.67188L28.734375 224.67188Q29.546875 224.67188 29.84375 224.60938Q30.25 224.51562 30.5 224.20312Q30.734375 223.875 30.734375 223.39062Q30.734375 222.92188 30.5 222.51562Q30.25 222.09375 29.828125 221.92188Q29.40625 221.73438 28.609375 221.73438L25.28125 221.73438L25.28125 220.6875L31.5 220.6875L31.5 221.625ZM31.5 218.70312L25.28125 218.70312L25.28125 217.76562L26.15625 217.76562Q25.6875 217.46875 25.421875 216.98438Q25.140625 216.5 25.140625 215.875Q25.140625 215.1875 25.421875 214.75Q25.703125 214.29688 26.21875 214.125Q25.140625 213.375 25.140625 212.20312Q25.140625 211.26562 25.65625 210.78125Q26.15625 210.28125 27.234375 210.28125L31.5 210.28125L31.5 211.32812L27.578125 211.32812Q26.953125 211.32812 26.671875 211.4375Q26.390625 211.53125 26.21875 211.79688Q26.046875 212.0625 26.046875 212.4375Q26.046875 213.09375 26.484375 213.53125Q26.921875 213.95312 27.890625 213.95312L31.5 213.95312L31.5 215.01562L27.453125 215.01562Q26.75 215.01562 26.40625 215.28125Q26.046875 215.53125 26.046875 216.10938Q26.046875 216.5625 26.28125 216.9375Q26.515625 217.3125 26.96875 217.48438Q27.421875 217.65625 28.265625 217.65625L31.5 217.65625L31.5 218.70312ZM31.5 207.73438L31.5 208.71875L22.90625 208.71875L22.90625 207.65625L25.96875 207.65625Q25.140625 206.98438 25.140625 205.95312Q25.140625 205.375 25.375 204.875Q25.59375 204.35938 26.015625 204.03125Q26.4375 203.6875 27.03125 203.5Q27.625 203.3125 28.296875 203.3125Q29.890625 203.3125 30.765625 204.10938Q31.640625 204.90625 31.640625 206.0Q31.640625 207.10938 30.71875 207.73438L31.5 207.73438ZM28.34375 207.75Q29.453125 207.75 29.953125 207.4375Q30.765625 206.9375 30.765625 206.09375Q30.765625 205.40625 30.171875 204.90625Q29.578125 204.39062 28.375 204.39062Q27.15625 204.39062 26.578125 204.875Q26.0 205.35938 26.0 206.04688Q26.0 206.73438 26.609375 207.25Q27.203125 207.75 28.34375 207.75ZM29.5 197.45312L29.625 196.35938Q30.578125 196.60938 31.109375 197.3125Q31.640625 198.01562 31.640625 199.09375Q31.640625 200.45312 30.796875 201.26562Q29.953125 202.0625 28.4375 202.0625Q26.875 202.0625 26.015625 201.25Q25.140625 200.4375 25.140625 199.15625Q25.140625 197.90625 25.984375 197.125Q26.828125 196.32812 28.375 196.32812Q28.46875 196.32812 28.65625 196.32812L28.65625 200.96875Q29.6875 200.90625 30.234375 200.39062Q30.765625 199.875 30.765625 199.09375Q30.765625 198.51562 30.46875 198.10938Q30.15625 197.6875 29.5 197.45312ZM27.796875 200.90625L27.796875 197.4375Q27.0 197.5 26.609375 197.82812Q26.0 198.34375 26.0 199.14062Q26.0 199.875 26.484375 200.375Q26.96875 200.85938 27.796875 200.90625ZM31.5 194.71875L25.28125 194.71875L25.28125 193.76562L26.21875 193.76562Q25.5625 193.40625 25.359375 193.10938Q25.140625 192.79688 25.140625 192.42188Q25.140625 191.89062 25.46875 191.34375L26.453125 191.70312Q26.21875 192.09375 26.21875 192.46875Q26.21875 192.82812 26.4375 193.10938Q26.640625 193.375 27.015625 193.48438Q27.578125 193.67188 28.234375 193.67188L31.5 193.67188L31.5 194.71875ZM28.390625 188.09375Q26.65625 188.09375 25.828125 187.14062Q25.140625 186.34375 25.140625 185.1875Q25.140625 183.90625 25.984375 183.09375Q26.8125 182.26562 28.296875 182.26562Q29.5 182.26562 30.1875 182.625Q30.875 182.98438 31.265625 183.6875Q31.640625 184.375 31.640625 185.1875Q31.640625 186.48438 30.8125 187.29688Q29.96875 188.09375 28.390625 188.09375ZM28.390625 187.01562Q29.578125 187.01562 30.171875 186.5Q30.765625 185.96875 30.765625 185.1875Q30.765625 184.39062 30.171875 183.875Q29.578125 183.35938 28.359375 183.35938Q27.203125 183.35938 26.609375 183.89062Q26.015625 184.40625 26.015625 185.1875Q26.015625 185.96875 26.609375 186.5Q27.1875 187.01562 28.390625 187.01562ZM31.5 180.45312L26.09375 180.45312L26.09375 181.39062L25.28125 181.39062L25.28125 180.45312L24.609375 180.45312Q23.984375 180.45312 23.6875 180.34375Q23.265625 180.1875 23.015625 179.8125Q22.765625 179.42188 22.765625 178.73438Q22.765625 178.28125 22.875 177.75L23.78125 177.90625Q23.734375 178.23438 23.734375 178.53125Q23.734375 179.01562 23.9375 179.21875Q24.140625 179.40625 24.703125 179.40625L25.28125 179.40625L25.28125 178.1875L26.09375 178.1875L26.09375 179.40625L31.5 179.40625L31.5 180.45312ZM31.5 173.5625L25.28125 175.46875L25.28125 174.375L28.875 173.39062L30.203125 173.01562Q30.109375 172.98438 28.921875 172.6875L25.28125 171.70312L25.28125 170.625L28.890625 169.6875L30.078125 169.375L28.875 169.01562L25.28125 167.95312L25.28125 166.92188L31.5 168.875L31.5 169.96875L27.765625 170.95312L26.71875 171.20312L31.5 172.45312L31.5 173.5625ZM28.390625 166.09375Q26.65625 166.09375 25.828125 165.14062Q25.140625 164.34375 25.140625 163.1875Q25.140625 161.90625 25.984375 161.09375Q26.8125 160.26562 28.296875 160.26562Q29.5 160.26562 30.1875 160.625Q30.875 160.98438 31.265625 161.6875Q31.640625 162.375 31.640625 163.1875Q31.640625 164.48438 30.8125 165.29688Q29.96875 166.09375 28.390625 166.09375ZM28.390625 165.01562Q29.578125 165.01562 30.171875 164.5Q30.765625 163.96875 30.765625 163.1875Q30.765625 162.39062 30.171875 161.875Q29.578125 161.35938 28.359375 161.35938Q27.203125 161.35938 26.609375 161.89062Q26.015625 162.40625 26.015625 163.1875Q26.015625 163.96875 26.609375 164.5Q27.1875 165.01562 28.390625 165.01562ZM31.5 158.71875L25.28125 158.71875L25.28125 157.76562L26.21875 157.76562Q25.5625 157.40625 25.359375 157.10938Q25.140625 156.79688 25.140625 156.42188Q25.140625 155.89062 25.46875 155.34375L26.453125 155.70312Q26.21875 156.09375 26.21875 156.46875Q26.21875 156.82812 26.4375 157.10938Q26.640625 157.375 27.015625 157.48438Q27.578125 157.67188 28.234375 157.67188L31.5 157.67188L31.5 158.71875ZM31.5 150.67188L30.71875 150.67188Q31.640625 151.26562 31.640625 152.40625Q31.640625 153.15625 31.234375 153.78125Q30.8125 154.40625 30.078125 154.75Q29.34375 155.09375 28.390625 155.09375Q27.46875 155.09375 26.703125 154.78125Q25.9375 154.46875 25.546875 153.84375Q25.140625 153.21875 25.140625 152.45312Q25.140625 151.89062 25.375 151.45312Q25.609375 151.01562 25.984375 150.73438L22.90625 150.73438L22.90625 149.6875L31.5 149.6875L31.5 150.67188ZM28.390625 154.0Q29.59375 154.0 30.1875 153.5Q30.765625 153.0 30.765625 152.3125Q30.765625 151.625 30.203125 151.14062Q29.640625 150.65625 28.484375 150.65625Q27.203125 150.65625 26.609375 151.15625Q26.015625 151.64062 26.015625 152.35938Q26.015625 153.0625 26.59375 153.53125Q27.15625 154.0 28.390625 154.0ZM29.640625 148.125L29.484375 147.09375Q30.109375 147.0 30.4375 146.60938Q30.765625 146.20312 30.765625 145.46875Q30.765625 144.75 30.484375 144.40625Q30.1875 144.04688 29.78125 144.04688Q29.421875 144.04688 29.21875 144.35938Q29.078125 144.57812 28.859375 145.4375Q28.5625 146.59375 28.359375 147.04688Q28.140625 147.48438 27.765625 147.71875Q27.390625 147.95312 26.921875 147.95312Q26.515625 147.95312 26.15625 147.76562Q25.796875 147.57812 25.5625 147.25Q25.390625 147.0 25.265625 146.57812Q25.140625 146.15625 25.140625 145.65625Q25.140625 144.9375 25.359375 144.39062Q25.5625 143.82812 25.921875 143.5625Q26.28125 143.29688 26.875 143.20312L27.015625 144.23438Q26.546875 144.29688 26.28125 144.64062Q26.0 144.96875 26.0 145.59375Q26.0 146.3125 26.25 146.625Q26.484375 146.9375 26.8125 146.9375Q27.015625 146.9375 27.171875 146.8125Q27.34375 146.67188 27.453125 146.40625Q27.515625 146.25 27.71875 145.46875Q28.03125 144.34375 28.21875 143.90625Q28.40625 143.46875 28.765625 143.21875Q29.125 142.96875 29.671875 142.96875Q30.203125 142.96875 30.671875 143.28125Q31.125 143.57812 31.390625 144.15625Q31.640625 144.73438 31.640625 145.46875Q31.640625 146.6875 31.140625 147.32812Q30.625 147.95312 29.640625 148.125Z" fill-rule="nonzero"/><path fill="#000000" d="M115.0 350.26562Q115.0 348.73438 115.3125 347.8125Q115.625 346.875 116.234375 346.375Q116.859375 345.875 117.796875 345.875Q118.484375 345.875 119.0 346.15625Q119.53125 346.4375 119.875 346.96875Q120.21875 347.48438 120.40625 348.23438Q120.59375 348.98438 120.59375 350.26562Q120.59375 351.78125 120.28125 352.70312Q119.984375 353.625 119.359375 354.14062Q118.75 354.64062 117.796875 354.64062Q116.5625 354.64062 115.84375 353.75Q115.0 352.6875 115.0 350.26562ZM116.078125 350.26562Q116.078125 352.375 116.578125 353.07812Q117.078125 353.78125 117.796875 353.78125Q118.53125 353.78125 119.015625 353.07812Q119.515625 352.375 119.515625 350.26562Q119.515625 348.14062 119.015625 347.45312Q118.53125 346.75 117.78125 346.75Q117.0625 346.75 116.625 347.35938Q116.078125 348.14062 116.078125 350.26562Z" fill-rule="nonzero"/><path fill="#000000" d="M60.0 271.5L61.109375 271.40625Q61.234375 272.21875 61.671875 272.625Q62.125 273.03125 62.765625 273.03125Q63.515625 273.03125 64.046875 272.45312Q64.578125 271.875 64.578125 270.9375Q64.578125 270.03125 64.0625 269.51562Q63.5625 268.98438 62.734375 268.98438Q62.234375 268.98438 61.8125 269.21875Q61.40625 269.45312 61.171875 269.8125L60.1875 269.6875L61.015625 265.28125L65.296875 265.28125L65.296875 266.28125L61.859375 266.28125L61.40625 268.59375Q62.171875 268.04688 63.015625 268.04688Q64.140625 268.04688 64.90625 268.82812Q65.6875 269.60938 65.6875 270.84375Q65.6875 272.0 65.015625 272.85938Q64.1875 273.89062 62.765625 273.89062Q61.59375 273.89062 60.84375 273.23438Q60.109375 272.57812 60.0 271.5ZM67.0 269.51562Q67.0 267.98438 67.3125 267.0625Q67.625 266.125 68.234375 265.625Q68.859375 265.125 69.796875 265.125Q70.484375 265.125 71.0 265.40625Q71.53125 265.6875 71.875 266.21875Q72.21875 266.73438 72.40625 267.48438Q72.59375 268.23438 72.59375 269.51562Q72.59375 271.03125 72.28125 271.95312Q71.984375 272.875 71.359375 273.39062Q70.75 273.89062 69.796875 273.89062Q68.5625 273.89062 67.84375 273.0Q67.0 271.9375 67.0 269.51562ZM68.078125 269.51562Q68.078125 271.625 68.578125 272.32812Q69.078125 273.03125 69.796875 273.03125Q70.53125 273.03125 71.015625 272.32812Q71.515625 271.625 71.515625 269.51562Q71.515625 267.39062 71.015625 266.70312Q70.53125 266.0 69.78125 266.0Q69.0625 266.0 68.625 266.60938Q68.078125 267.39062 68.078125 269.51562ZM77.0 269.51562Q77.0 267.98438 77.3125 267.0625Q77.625 266.125 78.234375 265.625Q78.859375 265.125 79.796875 265.125Q80.484375 265.125 81.0 265.40625Q81.53125 265.6875 81.875 266.21875Q82.21875 266.73438 82.40625 267.48438Q82.59375 268.23438 82.59375 269.51562Q82.59375 271.03125 82.28125 271.95312Q81.984375 272.875 81.359375 273.39062Q80.75 273.89062 79.796875 273.89062Q78.5625 273.89062 77.84375 273.0Q77.0 271.9375 77.0 269.51562ZM78.078125 269.51562Q78.078125 271.625 78.578125 272.32812Q79.078125 273.03125 79.796875 273.03125Q80.53125 273.03125 81.015625 272.32812Q81.515625 271.625 81.515625 269.51562Q81.515625 267.39062 81.015625 266.70312Q80.53125 266.0 79.78125 266.0Q79.0625 266.0 78.625 266.60938Q78.078125 267.39062 78.078125 269.51562ZM84.0 269.51562Q84.0 267.98438 84.3125 267.0625Q84.625 266.125 85.234375 265.625Q85.859375 265.125 86.796875 265.125Q87.484375 265.125 88.0 265.40625Q88.53125 265.6875 88.875 266.21875Q89.21875 266.73438 89.40625 267.48438Q89.59375 268.23438 89.59375 269.51562Q89.59375 271.03125 89.28125 271.95312Q88.984375 272.875 88.359375 273.39062Q87.75 273.89062 86.796875 273.89062Q85.5625 273.89062 84.84375 273.0Q84.0 271.9375 84.0 269.51562ZM85.078125 269.51562Q85.078125 271.625 85.578125 272.32812Q86.078125 273.03125 86.796875 273.03125Q87.53125 273.03125 88.015625 272.32812Q88.515625 271.625 88.515625 269.51562Q88.515625 267.39062 88.015625 266.70312Q87.53125 266.0 86.78125 266.0Q86.0625 266.0 85.625 266.60938Q85.078125 267.39062 85.078125 269.51562ZM91.0 269.51562Q91.0 267.98438 91.3125 267.0625Q91.625 266.125 92.234375 265.625Q92.859375 265.125 93.796875 265.125Q94.484375 265.125 95.0 265.40625Q95.53125 265.6875 95.875 266.21875Q96.21875 266.73438 96.40625 267.48438Q96.59375 268.23438 96.59375 269.51562Q96.59375 271.03125 96.28125 271.95312Q95.984375 272.875 95.359375 273.39062Q94.75 273.89062 93.796875 273.89062Q92.5625 273.89062 91.84375 273.0Q91.0 271.9375 91.0 269.51562ZM92.078125 269.51562Q92.078125 271.625 92.578125 272.32812Q93.078125 273.03125 93.796875 273.03125Q94.53125 273.03125 95.015625 272.32812Q95.515625 271.625 95.515625 269.51562Q95.515625 267.39062 95.015625 266.70312Q94.53125 266.0 93.78125 266.0Q93.0625 266.0 92.625 266.60938Q92.078125 267.39062 92.078125 269.51562ZM101.0 269.51562Q101.0 267.98438 101.3125 267.0625Q101.625 266.125 102.234375 265.625Q102.859375 265.125 103.796875 265.125Q104.484375 265.125 105.0 265.40625Q105.53125 265.6875 105.875 266.21875Q106.21875 266.73438 106.40625 267.48438Q106.59375 268.23438 106.59375 269.51562Q106.59375 271.03125 106.28125 271.95312Q105.984375 272.875 105.359375 273.39062Q104.75 273.89062 103.796875 273.89062Q102.5625 273.89062 101.84375 273.0Q101.0 271.9375 101.0 269.51562ZM102.078125 269.51562Q102.078125 271.625 102.578125 272.32812Q103.078125 273.03125 103.796875 273.03125Q104.53125 273.03125 105.015625 272.32812Q105.515625 271.625 105.515625 269.51562Q105.515625 267.39062 105.015625 266.70312Q104.53125 266.0 103.78125 266.0Q103.0625 266.0 102.625 266.60938Q102.078125 267.39062 102.078125 269.51562ZM108.0 269.51562Q108.0 267.98438 108.3125 267.0625Q108.625 266.125 109.234375 265.625Q109.859375 265.125 110.796875 265.125Q111.484375 265.125 112.0 265.40625Q112.53125 265.6875 112.875 266.21875Q113.21875 266.73438 113.40625 267.48438Q113.59375 268.23438 113.59375 269.51562Q113.59375 271.03125 113.28125 271.95312Q112.984375 272.875 112.359375 273.39062Q111.75 273.89062 110.796875 273.89062Q109.5625 273.89062 108.84375 273.0Q108.0 271.9375 108.0 269.51562ZM109.078125 269.51562Q109.078125 271.625 109.578125 272.32812Q110.078125 273.03125 110.796875 273.03125Q111.53125 273.03125 112.015625 272.32812Q112.515625 271.625 112.515625 269.51562Q112.515625 267.39062 112.015625 266.70312Q111.53125 266.0 110.78125 266.0Q110.0625 266.0 109.625 266.60938Q109.078125 267.39062 109.078125 269.51562ZM115.0 269.51562Q115.0 267.98438 115.3125 267.0625Q115.625 266.125 116.234375 265.625Q116.859375 265.125 117.796875 265.125Q118.484375 265.125 119.0 265.40625Q119.53125 265.6875 119.875 266.21875Q120.21875 266.73438 120.40625 267.48438Q120.59375 268.23438 120.59375 269.51562Q120.59375 271.03125 120.28125 271.95312Q119.984375 272.875 119.359375 273.39062Q118.75 273.89062 117.796875 273.89062Q116.5625 273.89062 115.84375 273.0Q115.0 271.9375 115.0 269.51562ZM116.078125 269.51562Q116.078125 271.625 116.578125 272.32812Q117.078125 273.03125 117.796875 273.03125Q118.53125 273.03125 119.015625 272.32812Q119.515625 271.625 119.515625 269.51562Q119.515625 267.39062 119.015625 266.70312Q118.53125 266.0 117.78125 266.0Q117.0625 266.0 116.625 266.60938Q116.078125 267.39062 116.078125 269.51562Z" fill-rule="nonzero"/><path fill="#000000" d="M56.96875 193.0L55.921875 193.0L55.921875 186.28125Q55.53125 186.64062 54.90625 187.01562Q54.296875 187.375 53.8125 187.54688L53.8125 186.53125Q54.6875 186.10938 55.34375 185.53125Q56.015625 184.9375 56.296875 184.375L56.96875 184.375L56.96875 193.0ZM60.0 188.76562Q60.0 187.23438 60.3125 186.3125Q60.625 185.375 61.234375 184.875Q61.859375 184.375 62.796875 184.375Q63.484375 184.375 64.0 184.65625Q64.53125 184.9375 64.875 185.46875Q65.21875 185.98438 65.40625 186.73438Q65.59375 187.48438 65.59375 188.76562Q65.59375 190.28125 65.28125 191.20312Q64.984375 192.125 64.359375 192.64062Q63.75 193.14062 62.796875 193.14062Q61.5625 193.14062 60.84375 192.25Q60.0 191.1875 60.0 188.76562ZM61.078125 188.76562Q61.078125 190.875 61.578125 191.57812Q62.078125 192.28125 62.796875 192.28125Q63.53125 192.28125 64.015625 191.57812Q64.515625 190.875 64.515625 188.76562Q64.515625 186.64062 64.015625 185.95312Q63.53125 185.25 62.78125 185.25Q62.0625 185.25 61.625 185.85938Q61.078125 186.64062 61.078125 188.76562ZM67.0 188.76562Q67.0 187.23438 67.3125 186.3125Q67.625 185.375 68.234375 184.875Q68.859375 184.375 69.796875 184.375Q70.484375 184.375 71.0 184.65625Q71.53125 184.9375 71.875 185.46875Q72.21875 185.98438 72.40625 186.73438Q72.59375 187.48438 72.59375 188.76562Q72.59375 190.28125 72.28125 191.20312Q71.984375 192.125 71.359375 192.64062Q70.75 193.14062 69.796875 193.14062Q68.5625 193.14062 67.84375 192.25Q67.0 191.1875 67.0 188.76562ZM68.078125 188.76562Q68.078125 190.875 68.578125 191.57812Q69.078125 192.28125 69.796875 192.28125Q70.53125 192.28125 71.015625 191.57812Q71.515625 190.875 71.515625 188.76562Q71.515625 186.64062 71.015625 185.95312Q70.53125 185.25 69.78125 185.25Q69.0625 185.25 68.625 185.85938Q68.078125 186.64062 68.078125 188.76562ZM77.0 188.76562Q77.0 187.23438 77.3125 186.3125Q77.625 185.375 78.234375 184.875Q78.859375 184.375 79.796875 184.375Q80.484375 184.375 81.0 184.65625Q81.53125 184.9375 81.875 185.46875Q82.21875 185.98438 82.40625 186.73438Q82.59375 187.48438 82.59375 188.76562Q82.59375 190.28125 82.28125 191.20312Q81.984375 192.125 81.359375 192.64062Q80.75 193.14062 79.796875 193.14062Q78.5625 193.14062 77.84375 192.25Q77.0 191.1875 77.0 188.76562ZM78.078125 188.76562Q78.078125 190.875 78.578125 191.57812Q79.078125 192.28125 79.796875 192.28125Q80.53125 192.28125 81.015625 191.57812Q81.515625 190.875 81.515625 188.76562Q81.515625 186.64062 81.015625 185.95312Q80.53125 185.25 79.78125 185.25Q79.0625 185.25 78.625 185.85938Q78.078125 186.64062 78.078125 188.76562ZM84.0 188.76562Q84.0 187.23438 84.3125 186.3125Q84.625 185.375 85.234375 184.875Q85.859375 184.375 86.796875 184.375Q87.484375 184.375 88.0 184.65625Q88.53125 184.9375 88.875 185.46875Q89.21875 185.98438 89.40625 186.73438Q89.59375 187.48438 89.59375 188.76562Q89.59375 190.28125 89.28125 191.20312Q88.984375 192.125 88.359375 192.64062Q87.75 193.14062 86.796875 193.14062Q85.5625 193.14062 84.84375 192.25Q84.0 191.1875 84.0 188.76562ZM85.078125 188.76562Q85.078125 190.875 85.578125 191.57812Q86.078125 192.28125 86.796875 192.28125Q87.53125 192.28125 88.015625 191.57812Q88.515625 190.875 88.515625 188.76562Q88.515625 186.64062 88.015625 185.95312Q87.53125 185.25 86.78125 185.25Q86.0625 185.25 85.625 185.85938Q85.078125 186.64062 85.078125 188.76562ZM91.0 188.76562Q91.0 187.23438 91.3125 186.3125Q91.625 185.375 92.234375 184.875Q92.859375 184.375 93.796875 184.375Q94.484375 184.375 95.0 184.65625Q95.53125 184.9375 95.875 185.46875Q96.21875 185.98438 96.40625 186.73438Q96.59375 187.48438 96.59375 188.76562Q96.59375 190.28125 96.28125 191.20312Q95.984375 192.125 95.359375 192.64062Q94.75 193.14062 93.796875 193.14062Q92.5625 193.14062 91.84375 192.25Q91.0 191.1875 91.0 188.76562ZM92.078125 188.76562Q92.078125 190.875 92.578125 191.57812Q93.078125 192.28125 93.796875 192.28125Q94.53125 192.28125 95.015625 191.57812Q95.515625 190.875 95.515625 188.76562Q95.515625 186.64062 95.015625 185.95312Q94.53125 185.25 93.78125 185.25Q93.0625 185.25 92.625 185.85938Q92.078125 186.64062 92.078125 188.76562ZM101.0 188.76562Q101.0 187.23438 101.3125 186.3125Q101.625 185.375 102.234375 184.875Q102.859375 184.375 103.796875 184.375Q104.484375 184.375 105.0 184.65625Q105.53125 184.9375 105.875 185.46875Q106.21875 185.98438 106.40625 186.73438Q106.59375 187.48438 106.59375 188.76562Q106.59375 190.28125 106.28125 191.20312Q105.984375 192.125 105.359375 192.64062Q104.75 193.14062 103.796875 193.14062Q102.5625 193.14062 101.84375 192.25Q101.0 191.1875 101.0 188.76562ZM102.078125 188.76562Q102.078125 190.875 102.578125 191.57812Q103.078125 192.28125 103.796875 192.28125Q104.53125 192.28125 105.015625 191.57812Q105.515625 190.875 105.515625 188.76562Q105.515625 186.64062 105.015625 185.95312Q104.53125 185.25 103.78125 185.25Q103.0625 185.25 102.625 185.85938Q102.078125 186.64062 102.078125 188.76562ZM108.0 188.76562Q108.0 187.23438 108.3125 186.3125Q108.625 185.375 109.234375 184.875Q109.859375 184.375 110.796875 184.375Q111.484375 184.375 112.0 184.65625Q112.53125 184.9375 112.875 185.46875Q113.21875 185.98438 113.40625 186.73438Q113.59375 187.48438 113.59375 188.76562Q113.59375 190.28125 113.28125 191.20312Q112.984375 192.125 112.359375 192.64062Q111.75 193.14062 110.796875 193.14062Q109.5625 193.14062 108.84375 192.25Q108.0 191.1875 108.0 188.76562ZM109.078125 188.76562Q109.078125 190.875 109.578125 191.57812Q110.078125 192.28125 110.796875 192.28125Q111.53125 192.28125 112.015625 191.57812Q112.515625 190.875 112.515625 188.76562Q112.515625 186.64062 112.015625 185.95312Q111.53125 185.25 110.78125 185.25Q110.0625 185.25 109.625 185.85938Q109.078125 186.64062 109.078125 188.76562ZM115.0 188.76562Q115.0 187.23438 115.3125 186.3125Q115.625 185.375 116.234375 184.875Q116.859375 184.375 117.796875 184.375Q118.484375 184.375 119.0 184.65625Q119.53125 184.9375 119.875 185.46875Q120.21875 185.98438 120.40625 186.73438Q120.59375 187.48438 120.59375 188.76562Q120.59375 190.28125 120.28125 191.20312Q119.984375 192.125 119.359375 192.64062Q118.75 193.14062 117.796875 193.14062Q116.5625 193.14062 115.84375 192.25Q115.0 191.1875 115.0 188.76562ZM116.078125 188.76562Q116.078125 190.875 116.578125 191.57812Q117.078125 192.28125 117.796875 192.28125Q118.53125 192.28125 119.015625 191.57812Q119.515625 190.875 119.515625 188.76562Q119.515625 186.64062 119.015625 185.95312Q118.53125 185.25 117.78125 185.25Q117.0625 185.25 116.625 185.85938Q116.078125 186.64062 116.078125 188.76562Z" fill-rule="nonzero"/><path fill="#000000" d="M56.96875 112.25L55.921875 112.25L55.921875 105.53125Q55.53125 105.890625 54.90625 106.265625Q54.296875 106.625 53.8125 106.796875L53.8125 105.78125Q54.6875 105.359375 55.34375 104.78125Q56.015625 104.1875 56.296875 103.625L56.96875 103.625L56.96875 112.25ZM60.0 110.0L61.109375 109.90625Q61.234375 110.71875 61.671875 111.125Q62.125 111.53125 62.765625 111.53125Q63.515625 111.53125 64.046875 110.953125Q64.578125 110.375 64.578125 109.4375Q64.578125 108.53125 64.0625 108.015625Q63.5625 107.484375 62.734375 107.484375Q62.234375 107.484375 61.8125 107.71875Q61.40625 107.953125 61.171875 108.3125L60.1875 108.1875L61.015625 103.78125L65.296875 103.78125L65.296875 104.78125L61.859375 104.78125L61.40625 107.09375Q62.171875 106.546875 63.015625 106.546875Q64.140625 106.546875 64.90625 107.328125Q65.6875 108.109375 65.6875 109.34375Q65.6875 110.5 65.015625 111.359375Q64.1875 112.390625 62.765625 112.390625Q61.59375 112.390625 60.84375 111.734375Q60.109375 111.078125 60.0 110.0ZM67.0 108.015625Q67.0 106.484375 67.3125 105.5625Q67.625 104.625 68.234375 104.125Q68.859375 103.625 69.796875 103.625Q70.484375 103.625 71.0 103.90625Q71.53125 104.1875 71.875 104.71875Q72.21875 105.234375 72.40625 105.984375Q72.59375 106.734375 72.59375 108.015625Q72.59375 109.53125 72.28125 110.453125Q71.984375 111.375 71.359375 111.890625Q70.75 112.390625 69.796875 112.390625Q68.5625 112.390625 67.84375 111.5Q67.0 110.4375 67.0 108.015625ZM68.078125 108.015625Q68.078125 110.125 68.578125 110.828125Q69.078125 111.53125 69.796875 111.53125Q70.53125 111.53125 71.015625 110.828125Q71.515625 110.125 71.515625 108.015625Q71.515625 105.890625 71.015625 105.203125Q70.53125 104.5 69.78125 104.5Q69.0625 104.5 68.625 105.109375Q68.078125 105.890625 68.078125 108.015625ZM77.0 108.015625Q77.0 106.484375 77.3125 105.5625Q77.625 104.625 78.234375 104.125Q78.859375 103.625 79.796875 103.625Q80.484375 103.625 81.0 103.90625Q81.53125 104.1875 81.875 104.71875Q82.21875 105.234375 82.40625 105.984375Q82.59375 106.734375 82.59375 108.015625Q82.59375 109.53125 82.28125 110.453125Q81.984375 111.375 81.359375 111.890625Q80.75 112.390625 79.796875 112.390625Q78.5625 112.390625 77.84375 111.5Q77.0 110.4375 77.0 108.015625ZM78.078125 108.015625Q78.078125 110.125 78.578125 110.828125Q79.078125 111.53125 79.796875 111.53125Q80.53125 111.53125 81.015625 110.828125Q81.515625 110.125 81.515625 108.015625Q81.515625 105.890625 81.015625 105.203125Q80.53125 104.5 79.78125 104.5Q79.0625 104.5 78.625 105.109375Q78.078125 105.890625 78.078125 108.015625ZM84.0 108.015625Q84.0 106.484375 84.3125 105.5625Q84.625 104.625 85.234375 104.125Q85.859375 103.625 86.796875 103.625Q87.484375 103.625 88.0 103.90625Q88.53125 104.1875 88.875 104.71875Q89.21875 105.234375 89.40625 105.984375Q89.59375 106.734375 89.59375 108.015625Q89.59375 109.53125 89.28125 110.453125Q88.984375 111.375 88.359375 111.890625Q87.75 112.390625 86.796875 112.390625Q85.5625 112.390625 84.84375 111.5Q84.0 110.4375 84.0 108.015625ZM85.078125 108.015625Q85.078125 110.125 85.578125 110.828125Q86.078125 111.53125 86.796875 111.53125Q87.53125 111.53125 88.015625 110.828125Q88.515625 110.125 88.515625 108.015625Q88.515625 105.890625 88.015625 105.203125Q87.53125 104.5 86.78125 104.5Q86.0625 104.5 85.625 105.109375Q85.078125 105.890625 85.078125 108.015625ZM91.0 108.015625Q91.0 106.484375 91.3125 105.5625Q91.625 104.625 92.234375 104.125Q92.859375 103.625 93.796875 103.625Q94.484375 103.625 95.0 103.90625Q95.53125 104.1875 95.875 104.71875Q96.21875 105.234375 96.40625 105.984375Q96.59375 106.734375 96.59375 108.015625Q96.59375 109.53125 96.28125 110.453125Q95.984375 111.375 95.359375 111.890625Q94.75 112.390625 93.796875 112.390625Q92.5625 112.390625 91.84375 111.5Q91.0 110.4375 91.0 108.015625ZM92.078125 108.015625Q92.078125 110.125 92.578125 110.828125Q93.078125 111.53125 93.796875 111.53125Q94.53125 111.53125 95.015625 110.828125Q95.515625 110.125 95.515625 108.015625Q95.515625 105.890625 95.015625 105.203125Q94.53125 104.5 93.78125 104.5Q93.0625 104.5 92.625 105.109375Q92.078125 105.890625 92.078125 108.015625ZM101.0 108.015625Q101.0 106.484375 101.3125 105.5625Q101.625 104.625 102.234375 104.125Q102.859375 103.625 103.796875 103.625Q104.484375 103.625 105.0 103.90625Q105.53125 104.1875 105.875 104.71875Q106.21875 105.234375 106.40625 105.984375Q106.59375 106.734375 106.59375 108.015625Q106.59375 109.53125 106.28125 110.453125Q105.984375 111.375 105.359375 111.890625Q104.75 112.390625 103.796875 112.390625Q102.5625 112.390625 101.84375 111.5Q101.0 110.4375 101.0 108.015625ZM102.078125 108.015625Q102.078125 110.125 102.578125 110.828125Q103.078125 111.53125 103.796875 111.53125Q104.53125 111.53125 105.015625 110.828125Q105.515625 110.125 105.515625 108.015625Q105.515625 105.890625 105.015625 105.203125Q104.53125 104.5 103.78125 104.5Q103.0625 104.5 102.625 105.109375Q102.078125 105.890625 102.078125 108.015625ZM108.0 108.015625Q108.0 106.484375 108.3125 105.5625Q108.625 104.625 109.234375 104.125Q109.859375 103.625 110.796875 103.625Q111.484375 103.625 112.0 103.90625Q112.53125 104.1875 112.875 104.71875Q113.21875 105.234375 113.40625 105.984375Q113.59375 106.734375 113.59375 108.015625Q113.59375 109.53125 113.28125 110.453125Q112.984375 111.375 112.359375 111.890625Q111.75 112.390625 110.796875 112.390625Q109.5625 112.390625 108.84375 111.5Q108.0 110.4375 108.0 108.015625ZM109.078125 108.015625Q109.078125 110.125 109.578125 110.828125Q110.078125 111.53125 110.796875 111.53125Q111.53125 111.53125 112.015625 110.828125Q112.515625 110.125 112.515625 108.015625Q112.515625 105.890625 112.015625 105.203125Q111.53125 104.5 110.78125 104.5Q110.0625 104.5 109.625 105.109375Q109.078125 105.890625 109.078125 108.015625ZM115.0 108.015625Q115.0 106.484375 115.3125 105.5625Q115.625 104.625 116.234375 104.125Q116.859375 103.625 117.796875 103.625Q118.484375 103.625 119.0 103.90625Q119.53125 104.1875 119.875 104.71875Q120.21875 105.234375 120.40625 105.984375Q120.59375 106.734375 120.59375 108.015625Q120.59375 109.53125 120.28125 110.453125Q119.984375 111.375 119.359375 111.890625Q118.75 112.390625 117.796875 112.390625Q116.5625 112.390625 115.84375 111.5Q115.0 110.4375 115.0 108.015625ZM116.078125 108.015625Q116.078125 110.125 116.578125 110.828125Q117.078125 111.53125 117.796875 111.53125Q118.53125 111.53125 119.015625 110.828125Q119.515625 110.125 119.515625 108.015625Q119.515625 105.890625 119.015625 105.203125Q118.53125 104.5 117.78125 104.5Q117.0625 104.5 116.625 105.109375Q116.078125 105.890625 116.078125 108.015625Z" fill-rule="nonzero"/><path fill="#000000" d="M58.546875 30.484375L58.546875 31.5L52.859375 31.5Q52.859375 31.125 52.984375 30.765625Q53.203125 30.1875 53.671875 29.625Q54.15625 29.0625 55.0625 28.328125Q56.46875 27.171875 56.953125 26.5Q57.453125 25.828125 57.453125 25.234375Q57.453125 24.609375 57.0 24.1875Q56.546875 23.75 55.828125 23.75Q55.0625 23.75 54.609375 24.203125Q54.15625 24.65625 54.140625 25.46875L53.0625 25.359375Q53.171875 24.140625 53.890625 23.515625Q54.625 22.875 55.859375 22.875Q57.09375 22.875 57.8125 23.5625Q58.53125 24.25 58.53125 25.265625Q58.53125 25.78125 58.3125 26.28125Q58.109375 26.765625 57.609375 27.328125Q57.125 27.875 56.0 28.828125Q55.046875 29.625 54.765625 29.921875Q54.5 30.203125 54.328125 30.484375L58.546875 30.484375ZM60.0 27.265625Q60.0 25.734375 60.3125 24.8125Q60.625 23.875 61.234375 23.375Q61.859375 22.875 62.796875 22.875Q63.484375 22.875 64.0 23.15625Q64.53125 23.4375 64.875 23.96875Q65.21875 24.484375 65.40625 25.234375Q65.59375 25.984375 65.59375 27.265625Q65.59375 28.78125 65.28125 29.703125Q64.984375 30.625 64.359375 31.140625Q63.75 31.640625 62.796875 31.640625Q61.5625 31.640625 60.84375 30.75Q60.0 29.6875 60.0 27.265625ZM61.078125 27.265625Q61.078125 29.375 61.578125 30.078125Q62.078125 30.78125 62.796875 30.78125Q63.53125 30.78125 64.015625 30.078125Q64.515625 29.375 64.515625 27.265625Q64.515625 25.140625 64.015625 24.453125Q63.53125 23.75 62.78125 23.75Q62.0625 23.75 61.625 24.359375Q61.078125 25.140625 61.078125 27.265625ZM67.0 27.265625Q67.0 25.734375 67.3125 24.8125Q67.625 23.875 68.234375 23.375Q68.859375 22.875 69.796875 22.875Q70.484375 22.875 71.0 23.15625Q71.53125 23.4375 71.875 23.96875Q72.21875 24.484375 72.40625 25.234375Q72.59375 25.984375 72.59375 27.265625Q72.59375 28.78125 72.28125 29.703125Q71.984375 30.625 71.359375 31.140625Q70.75 31.640625 69.796875 31.640625Q68.5625 31.640625 67.84375 30.75Q67.0 29.6875 67.0 27.265625ZM68.078125 27.265625Q68.078125 29.375 68.578125 30.078125Q69.078125 30.78125 69.796875 30.78125Q70.53125 30.78125 71.015625 30.078125Q71.515625 29.375 71.515625 27.265625Q71.515625 25.140625 71.015625 24.453125Q70.53125 23.75 69.78125 23.75Q69.0625 23.75 68.625 24.359375Q68.078125 25.140625 68.078125 27.265625ZM77.0 27.265625Q77.0 25.734375 77.3125 24.8125Q77.625 23.875 78.234375 23.375Q78.859375 22.875 79.796875 22.875Q80.484375 22.875 81.0 23.15625Q81.53125 23.4375 81.875 23.96875Q82.21875 24.484375 82.40625 25.234375Q82.59375 25.984375 82.59375 27.265625Q82.59375 28.78125 82.28125 29.703125Q81.984375 30.625 81.359375 31.140625Q80.75 31.640625 79.796875 31.640625Q78.5625 31.640625 77.84375 30.75Q77.0 29.6875 77.0 27.265625ZM78.078125 27.265625Q78.078125 29.375 78.578125 30.078125Q79.078125 30.78125 79.796875 30.78125Q80.53125 30.78125 81.015625 30.078125Q81.515625 29.375 81.515625 27.265625Q81.515625 25.140625 81.015625 24.453125Q80.53125 23.75 79.78125 23.75Q79.0625 23.75 78.625 24.359375Q78.078125 25.140625 78.078125 27.265625ZM84.0 27.265625Q84.0 25.734375 84.3125 24.8125Q84.625 23.875 85.234375 23.375Q85.859375 22.875 86.796875 22.875Q87.484375 22.875 88.0 23.15625Q88.53125 23.4375 88.875 23.96875Q89.21875 24.484375 89.40625 25.234375Q89.59375 25.984375 89.59375 27.265625Q89.59375 28.78125 89.28125 29.703125Q88.984375 30.625 88.359375 31.140625Q87.75 31.640625 86.796875 31.640625Q85.5625 31.640625 84.84375 30.75Q84.0 29.6875 84.0 27.265625ZM85.078125 27.265625Q85.078125 29.375 85.578125 30.078125Q86.078125 30.78125 86.796875 30.78125Q87.53125 30.78125 88.015625 30.078125Q88.515625 29.375 88.515625 27.265625Q88.515625 25.140625 88.015625 24.453125Q87.53125 23.75 86.78125 23.75Q86.0625 23.75 85.625 24.359375Q85.078125 25.140625 85.078125 27.265625ZM91.0 27.265625Q91.0 25.734375 91.3125 24.8125Q91.625 23.875 92.234375 23.375Q92.859375 22.875 93.796875 22.875Q94.484375 22.875 95.0 23.15625Q95.53125 23.4375 95.875 23.96875Q96.21875 24.484375 96.40625 25.234375Q96.59375 25.984375 96.59375 27.265625Q96.59375 28.78125 96.28125 29.703125Q95.984375 30.625 95.359375 31.140625Q94.75 31.640625 93.796875 31.640625Q92.5625 31.640625 91.84375 30.75Q91.0 29.6875 91.0 27.265625ZM92.078125 27.265625Q92.078125 29.375 92.578125 30.078125Q93.078125 30.78125 93.796875 30.78125Q94.53125 30.78125 95.015625 30.078125Q95.515625 29.375 95.515625 27.265625Q95.515625 25.140625 95.015625 24.453125Q94.53125 23.75 93.78125 23.75Q93.0625 23.75 92.625 24.359375Q92.078125 25.140625 92.078125 27.265625ZM101.0 27.265625Q101.0 25.734375 101.3125 24.8125Q101.625 23.875 102.234375 23.375Q102.859375 22.875 103.796875 22.875Q104.484375 22.875 105.0 23.15625Q105.53125 23.4375 105.875 23.96875Q106.21875 24.484375 106.40625 25.234375Q106.59375 25.984375 106.59375 27.265625Q106.59375 28.78125 106.28125 29.703125Q105.984375 30.625 105.359375 31.140625Q104.75 31.640625 103.796875 31.640625Q102.5625 31.640625 101.84375 30.75Q101.0 29.6875 101.0 27.265625ZM102.078125 27.265625Q102.078125 29.375 102.578125 30.078125Q103.078125 30.78125 103.796875 30.78125Q104.53125 30.78125 105.015625 30.078125Q105.515625 29.375 105.515625 27.265625Q105.515625 25.140625 105.015625 24.453125Q104.53125 23.75 103.78125 23.75Q103.0625 23.75 102.625 24.359375Q102.078125 25.140625 102.078125 27.265625ZM108.0 27.265625Q108.0 25.734375 108.3125 24.8125Q108.625 23.875 109.234375 23.375Q109.859375 22.875 110.796875 22.875Q111.484375 22.875 112.0 23.15625Q112.53125 23.4375 112.875 23.96875Q113.21875 24.484375 113.40625 25.234375Q113.59375 25.984375 113.59375 27.265625Q113.59375 28.78125 113.28125 29.703125Q112.984375 30.625 112.359375 31.140625Q111.75 31.640625 110.796875 31.640625Q109.5625 31.640625 108.84375 30.75Q108.0 29.6875 108.0 27.265625ZM109.078125 27.265625Q109.078125 29.375 109.578125 30.078125Q110.078125 30.78125 110.796875 30.78125Q111.53125 30.78125 112.015625 30.078125Q112.515625 29.375 112.515625 27.265625Q112.515625 25.140625 112.015625 24.453125Q111.53125 23.75 110.78125 23.75Q110.0625 23.75 109.625 24.359375Q109.078125 25.140625 109.078125 27.265625ZM115.0 27.265625Q115.0 25.734375 115.3125 24.8125Q115.625 23.875 116.234375 23.375Q116.859375 22.875 117.796875 22.875Q118.484375 22.875 119.0 23.15625Q119.53125 23.4375 119.875 23.96875Q120.21875 24.484375 120.40625 25.234375Q120.59375 25.984375 120.59375 27.265625Q120.59375 28.78125 120.28125 29.703125Q119.984375 30.625 119.359375 31.140625Q118.75 31.640625 117.796875 31.640625Q116.5625 31.640625 115.84375 30.75Q115.0 29.6875 115.0 27.265625ZM116.078125 27.265625Q116.078125 29.375 116.578125 30.078125Q117.078125 30.78125 117.796875 30.78125Q118.53125 30.78125 119.015625 30.078125Q119.515625 29.375 119.515625 27.265625Q119.515625 25.140625 119.015625 24.453125Q118.53125 23.75 117.78125 23.75Q117.0625 23.75 116.625 24.359375Q116.078125 25.140625 116.078125 27.265625Z" fill-rule="nonzero"/></svg>